<svg xmlns="http://www.w3.org/2000/svg" xml:space="preserve" width="1.70666in" height="1.70666in" style="shape-rendering:geometricPrecision; text-rendering:geometricPrecision; image-rendering:optimizeQuality; fill-rule:evenodd; clip-rule:evenodd" viewBox="0 0 1.70666 1.70666" xmlns:xlink="http://www.w3.org/1999/xlink">
 <defs>
  <style type="text/css">
   
    .fil0 {fill:black}
   
  </style>
 </defs>
 <g id="Layer_x0020_1">
  <metadata id="CorelCorpID_0Corel-Layer"></metadata>
  <path class="fil0" d="M0.210051 0.893689c-0.0580118,0 -0.111819,-0.0345394 -0.151516,-0.0972638 -0.0377441,-0.0596457 -0.0585315,-0.138512 -0.0585315,-0.222071 0,-0.0835591 0.0207835,-0.162425 0.0585315,-0.222067 0.0396969,-0.0627244 0.0935,-0.0972677 0.151516,-0.0972677 0.0580079,0 0.111819,0.0345394 0.151512,0.0972677 0.0377441,0.0596417 0.0585315,0.138508 0.0585315,0.222067 0,0.0835591 -0.0207874,0.162425 -0.0585315,0.222071 -0.0396929,0.0627244 -0.0935,0.0972638 -0.151512,0.0972638z" id="id_119"></path>
  <path class="fil0" d="M0.210051 1.45164c-0.0404921,0 -0.0734331,-0.0329409 -0.0734331,-0.0734331l0 -0.455965c0.0226063,0.00944488 0.0471496,0.0147756 0.0734331,0.0147756 0.0262835,0 0.0508307,-0.00532677 0.073437,-0.0147756l0 0.455961c-7.87402e-006,0.0404961 -0.0329449,0.073437 -0.073437,0.073437z" id="id_120"></path>
  <path class="fil0" d="M1.50917 1.41406c-0.0525315,0 -0.0952677,-0.0427362 -0.0952677,-0.0952638l0 -0.63285 0.190531 0 0 0.632846c0,0.0525276 -0.0427362,0.0952677 -0.0952638,0.0952677z" id="id_121"></path>
  <path class="fil0" d="M1.61548 0.642618l-0.212626 0c-0.0502756,0 -0.0911772,-0.0409016 -0.0911772,-0.0911772l0 -0.237173c0,-0.0119646 0.00970079,-0.0216654 0.0216654,-0.0216654 0.0119685,0 0.0216693,0.00970079 0.0216693,0.0216654l0 0.237169c0,0.0263819 0.0214606,0.0478465 0.0478425,0.0478465l0.212626 0c0.0263819,0 0.0478504,-0.0214646 0.0478504,-0.0478465l0 -0.237169c0,-0.0119646 0.00969685,-0.0216654 0.0216654,-0.0216654 0.0119646,0 0.0216654,0.00970079 0.0216654,0.0216654l0 0.237169c3.93701e-006,0.0502795 -0.0409016,0.0911811 -0.0911811,0.0911811z" id="id_122"></path>
  <path class="fil0" d="M1.50917 0.642618c-0.0119685,0 -0.0216693,-0.00969685 -0.0216693,-0.0216654l0 -0.306685c0,-0.0119646 0.00970079,-0.0216654 0.0216693,-0.0216654 0.0119646,0 0.0216654,0.00970079 0.0216654,0.0216654l0 0.306685c0,0.0119646 -0.00970079,0.0216654 -0.0216654,0.0216654z" id="id_123"></path>
  <path class="fil0" d="M0.853331 1.27601c-0.233067,0 -0.422677,-0.18961 -0.422677,-0.422677 0,-0.233067 0.18961,-0.422681 0.422677,-0.422681 0.233067,0 0.422681,0.189614 0.422681,0.422681 0,0.233067 -0.189614,0.422677 -0.422681,0.422677zm-0.218748 -0.401012c-0.0119685,0 -0.0216693,-0.00970079 -0.0216693,-0.0216654 0,-0.132571 0.10785,-0.240417 0.240417,-0.240417 0.0119685,0 0.0216654,0.00969685 0.0216654,0.0216654 0,0.0119685 -0.00969685,0.0216654 -0.0216654,0.0216654 -0.108669,0 -0.197083,0.0884134 -0.197083,0.197087 0,0.0119646 -0.00970079,0.0216654 -0.0216654,0.0216654zm0.218748 0.323815c-0.1905,0 -0.34548,-0.15498 -0.34548,-0.34548 0,-0.190504 0.15498,-0.345484 0.34548,-0.345484 0.1905,0 0.345484,0.15498 0.345484,0.345484 0,0.1905 -0.154984,0.34548 -0.345484,0.34548zm0 -0.64763c-0.166602,0 -0.30215,0.135543 -0.30215,0.30215 0,0.166602 0.135547,0.30215 0.30215,0.30215 0.166606,0 0.30215,-0.135547 0.30215,-0.30215 0,-0.166606 -0.135543,-0.30215 -0.30215,-0.30215z" id="id_124"></path>
 </g>
</svg>